<?xml version="1.0" encoding="utf-8"?>
<!-- Generator: Adobe Illustrator 26.5.0, SVG Export Plug-In . SVG Version: 6.00 Build 0)  -->
<svg version="1.1" id="Layer_1" xmlns="http://www.w3.org/2000/svg" xmlns:xlink="http://www.w3.org/1999/xlink" x="0px" y="0px"
	 viewBox="0 0 841.89 595.28" style="enable-background:new 0 0 841.89 595.28;" xml:space="preserve">
<style type="text/css">
	.st0{fill:#FDDED6;}
	.st1{fill:#F8A794;}
	.st2{fill:#EF3E24;}
	.st3{fill:#9A2E21;}
	.st4{fill:#FBB615;}
	.st5{fill:#272625;}
	.st6{font-family:'Montserrat-ExtraBold';}
	.st7{font-size:84.2972px;}
</style>
<path class="st0" d="M590.94,230.09c0,92.87-75.29,168.16-168.16,168.16c-92.87,0-168.16-75.29-168.16-168.16
	S329.9,61.93,422.77,61.93C515.65,61.93,590.94,137.22,590.94,230.09"/>
<path class="st1" d="M546.74,230.09c0,67.07-55.5,121.44-123.97,121.44s-123.97-54.37-123.97-121.44
	c0-67.07,55.5-121.44,123.97-121.44S546.74,163.03,546.74,230.09"/>
<path class="st2" d="M508.21,230.09c0,46.22-38.25,83.69-85.44,83.69s-85.44-37.47-85.44-83.69c0-46.22,38.25-83.69,85.44-83.69
	S508.21,183.87,508.21,230.09"/>
<path class="st3" d="M472.87,230.09c0,27.66-22.43,50.09-50.09,50.09c-27.66,0-50.09-22.43-50.09-50.09
	c0-27.66,22.43-50.09,50.09-50.09C450.44,180,472.87,202.43,472.87,230.09"/>
<path class="st4" d="M590.94,230.09c0,92.87-75.29,168.16-168.16,168.16s-168.16-75.29-168.16-168.16S329.9,61.93,422.77,61.93
	v168.16H590.94z"/>
<text transform="matrix(1 0 0 1 250.9542 505.1108)" class="st5 st6 st7">ChEESE</text>
</svg>
