<?xml version="1.0" encoding="UTF-8" standalone="no"?>
<!-- Created with Inkscape (http://www.inkscape.org/) -->

<svg
   xmlns:dc="http://purl.org/dc/elements/1.1/"
   xmlns:cc="http://creativecommons.org/ns#"
   xmlns:rdf="http://www.w3.org/1999/02/22-rdf-syntax-ns#"
   xmlns:svg="http://www.w3.org/2000/svg"
   xmlns="http://www.w3.org/2000/svg"
   xmlns:sodipodi="http://sodipodi.sourceforge.net/DTD/sodipodi-0.dtd"
   xmlns:inkscape="http://www.inkscape.org/namespaces/inkscape"
   width="117.31143mm"
   height="65.127434mm"
   viewBox="0 0 117.31143 65.127434"
   version="1.1"
   id="svg4825"
   inkscape:version="0.92.1 r"
   sodipodi:docname="swansea-stacked.svg">
  <defs
     id="defs4819">
    <clipPath
       id="clipPath4902"
       clipPathUnits="userSpaceOnUse">
      <path
         inkscape:connector-curvature="0"
         id="path4900"
         d="M 0,0 H 3958.77 V 2486.71 H 0 Z" />
    </clipPath>
  </defs>
  <sodipodi:namedview
     id="base"
     pagecolor="#ffffff"
     bordercolor="#666666"
     borderopacity="1.0"
     inkscape:pageopacity="0.0"
     inkscape:pageshadow="2"
     inkscape:zoom="0.35"
     inkscape:cx="798.83375"
     inkscape:cy="-128.35312"
     inkscape:document-units="mm"
     inkscape:current-layer="layer1"
     showgrid="false"
     fit-margin-top="0"
     fit-margin-left="0"
     fit-margin-right="0"
     fit-margin-bottom="0"
     inkscape:window-width="1680"
     inkscape:window-height="958"
     inkscape:window-x="0"
     inkscape:window-y="410"
     inkscape:window-maximized="0" />
  <metadata
     id="metadata4822">
    <rdf:RDF>
      <cc:Work
         rdf:about="">
        <dc:format>image/svg+xml</dc:format>
        <dc:type
           rdf:resource="http://purl.org/dc/dcmitype/StillImage" />
        <dc:title></dc:title>
      </cc:Work>
    </rdf:RDF>
  </metadata>
  <g
     inkscape:label="Layer 1"
     inkscape:groupmode="layer"
     id="layer1"
     transform="translate(105.52476,-49.745804)">
    <path
       inkscape:connector-curvature="0"
       id="path4904"
       style="fill:#233264;fill-opacity:1;fill-rule:nonzero;stroke:none;stroke-width:0.03527778"
       d="m -66.234012,94.151668 c -0.754944,-1.525764 -2.240139,-3.831837 -2.629253,-4.307734 l -0.07761,0.176741 c -0.0074,0.0314 -0.688269,2.988311 -0.908755,4.182534 0.1778,-0.08999 0.481541,-0.26416 0.739775,-0.411762 l 0.232127,-0.132997 0.0071,0.175013 c 0.08255,2.024627 -0.2794,3.782166 -1.076325,5.224286 l -0.01446,0.02688 c -0.146403,0.02575 -0.301978,0.0459 -0.456495,0.06103 l -2.587272,-1.930082 v -9.63789 c 0,-0.123119 -0.04798,-0.239536 -0.134761,-0.325966 -0.06456,-0.06491 -0.151694,-0.140406 -0.257175,-0.20955 l 5.457825,-4.217812 c 0.250473,-0.193675 0.285045,-0.557742 0.0762,-0.795514 -0.07902,-0.08961 -0.157339,-0.179916 -0.236008,-0.269522 -0.190147,-0.216606 -0.515408,-0.249767 -0.744361,-0.07479 l -5.326239,4.054123 c -0.529873,-0.168275 -1.638653,-0.464609 -2.858912,-0.464609 -1.491544,0 -2.813755,0.372181 -3.944408,1.108075 v -1.626658 c 0.536222,-0.02893 1.305278,-0.135114 2.083858,-0.466725 0.125236,-0.05292 0.208139,-0.183092 0.211314,-0.329495 l 0.03105,-1.294341 c 0.0032,-0.140406 -0.06738,-0.269875 -0.182034,-0.333728 -0.300567,-0.166511 -0.979664,-0.458611 -2.144183,-0.548217 v -0.249414 c 0,-0.235655 -0.1905,-0.425803 -0.425521,-0.425803 h -0.598205 c -0.235232,0 -0.425556,0.190148 -0.425556,0.425803 v 0.249414 c -1.164167,0.08961 -1.843511,0.381706 -2.144219,0.548217 -0.114653,0.06385 -0.185067,0.193322 -0.181751,0.333728 l 0.03115,1.294341 c 0.0032,0.146403 0.08583,0.276578 0.210961,0.329495 0.778581,0.331611 1.547672,0.437797 2.083859,0.466725 v 1.626658 c -1.130512,-0.735894 -2.452899,-1.108075 -3.944197,-1.108075 -1.055158,0 -2.02752,0.221545 -2.61359,0.390525 l -2.354121,-1.742369 c 0.108726,-0.272698 0.168557,-0.569736 0.168557,-0.881239 0,-1.319389 -1.069657,-2.389012 -2.389399,-2.389012 -1.319601,0 -2.389646,1.069623 -2.389646,2.389012 0,1.319741 1.070045,2.389717 2.389646,2.389717 0.48013,0 0.927135,-0.14217 1.301715,-0.385939 l 2.517669,1.863725 c -0.228776,0.08502 -0.407494,0.231069 -0.519536,0.343253 -0.08682,0.08643 -0.134761,0.202847 -0.134761,0.325966 v 9.462912 l -1.800966,1.33283 c -0.281658,0.0081 -0.569524,0.0744 -0.755721,0.202847 -1.433159,-2.067631 -2.580358,-4.736465 -2.489835,-7.287366 -1.205512,2.697656 -0.175013,5.907652 1.253067,8.355895 l -0.518689,0.348897 c -0.06794,0.04618 0.05084,0.342589 0.265677,0.662169 l 0.221297,0.3284 c 0.214983,0.31926 0.44443,0.54155 0.512904,0.49565 l 0.593407,-0.39934 c 1.914067,2.05563 4.644391,3.93418 7.540061,3.58207 -2.470538,-0.71328 -4.593413,-2.44257 -6.162322,-4.445 0.144427,-0.11381 0.202988,-0.388061 0.293546,-0.598634 l 2.473431,-1.830564 c 0.720443,-0.233187 1.595226,-0.45392 2.330274,-0.45392 1.165543,0 2.266985,0.173214 3.18008,0.463127 -0.0019,0.0039 0.01076,0.0077 0.03612,0.01132 l 0.998361,0.320675 c -0.002,0.01789 -0.003,0.03637 -0.003,0.05496 v 4.574826 c 0,0.31157 0.252624,0.56444 0.564197,0.56444 h 0.32064 c 0.311856,0 0.564445,-0.25287 0.564445,-0.56444 v -4.574826 c 0,-0.01859 -7.06e-4,-0.03708 -0.0028,-0.05496 l 0.998714,-0.320675 c 0.02505,-0.0036 0.03775,-0.0074 0.03598,-0.01132 0.912636,-0.289913 2.014361,-0.463127 3.179586,-0.463127 0.602897,0 1.298575,0.148132 1.927225,0.330165 l 3.422298,2.548403 c 0.04868,0.20217 0.09278,0.41589 0.122061,0.62522 -1.433689,1.41316 -3.15207,2.05977 -4.349751,2.353 l -0.145697,0.0356 0.01482,-0.14993 c 0.02046,-0.2056 0.04515,-0.41409 0.06809,-0.6022 0.02046,-0.16718 0.04269,-0.34783 0.05327,-0.47406 -0.987777,0.66643 -3.364794,2.39505 -3.378905,2.40387 l -0.138289,0.13324 c 0.622653,0.12883 3.178175,0.42443 4.805539,0.44662 -0.1778,-0.14429 -0.426861,-0.34643 -0.639586,-0.5158 l -0.162631,-0.1294 0.200025,-0.0568 c 1.214614,-0.34216 2.913945,-1.0221 4.392437,-2.3446 0.752828,-0.16482 1.807986,-0.62053 1.807986,-0.62053 0,0 0,-0.84103 -0.06174,-1.564224 0.969786,-1.667298 1.411111,-3.694641 1.309158,-6.030701 l -0.0078,-0.178611 0.160514,0.07842 c 0.293864,0.142911 0.8128,0.383787 1.128536,0.529449 m -27.339821,-9.82659 c -0.730214,0 -1.3214,-0.591608 -1.3214,-1.321153 0,-0.729897 0.591186,-1.321506 1.3214,-1.321506 0.729686,0 1.320836,0.591609 1.320836,1.321506 0,0.729545 -0.59115,1.321153 -1.320836,1.321153 m 19.236515,11.928511 c -0.650875,-0.261832 -1.416756,-0.394794 -2.280003,-0.394794 -1.973792,0 -3.944056,0.675923 -4.771496,1.001536 -0.138889,0.06491 -0.413949,0.16757 -0.308681,0.127741 0,0 -0.07122,-0.02438 -0.300002,-0.124142 -0.821972,-0.324662 -2.799891,-1.005135 -4.780245,-1.005135 -0.863494,0 -1.628845,0.132962 -2.28025,0.394794 V 86.196211 c 0.379907,-0.127352 1.416756,-0.426155 2.691448,-0.426155 1.662748,0 3.239629,0.571853 4.413286,1.545519 l 0.255763,0.293511 0.255517,-0.293511 c 1.174116,-0.973666 2.751032,-1.545519 4.413321,-1.545519 1.274586,0 2.3114,0.298803 2.691342,0.426155 v 10.057378" />
    <path
       inkscape:connector-curvature="0"
       id="path4906"
       style="fill:#233264;fill-opacity:1;fill-rule:nonzero;stroke:none;stroke-width:0.03527778"
       d="m -80.917682,88.172473 c -0.01482,0.04657 -0.0095,0.0956 0.01446,0.137583 l 0.01658,0.02928 c 0.02963,0.05609 0.0889,0.09137 0.153459,0.09137 0.02646,0 0.05186,-0.0056 0.07549,-0.01729 0.455789,-0.2159 1.678164,-0.718961 3.178881,-0.718961 0.485422,0 0.961672,0.05362 1.416403,0.159455 l 0.02928,0.0046 h 0.01023 c 0.07902,0 0.148872,-0.05256 0.170039,-0.131233 l 0.0074,-0.03175 c 0.01199,-0.04621 0.0049,-0.09454 -0.02011,-0.136525 -0.0247,-0.04057 -0.06385,-0.06914 -0.11042,-0.08008 -0.490714,-0.115005 -1.002947,-0.173213 -1.522236,-0.173213 -1.586795,0 -2.856089,0.532694 -3.327047,0.760941 -0.04445,0.02081 -0.07796,0.05962 -0.09243,0.105834" />
    <path
       inkscape:connector-curvature="0"
       id="path4908"
       style="fill:#233264;fill-opacity:1;fill-rule:nonzero;stroke:none;stroke-width:0.03527778"
       d="m -80.886991,89.473517 c 0.03034,0.0568 0.08961,0.09207 0.153812,0.09207 0.02611,0 0.05115,-0.006 0.07549,-0.01729 0.452614,-0.216606 1.667228,-0.719314 3.176764,-0.719314 0.486128,0 0.963436,0.05362 1.41852,0.159808 l 0.02963,0.0046 h 0.0099 c 0.07902,0 0.148872,-0.05292 0.170391,-0.131939 l 0.0071,-0.03034 c 0.01235,-0.04798 0.0049,-0.09666 -0.01976,-0.137584 -0.02469,-0.04057 -0.06385,-0.06879 -0.110772,-0.08008 -0.490714,-0.114653 -1.002594,-0.173214 -1.522589,-0.173214 -1.584678,0 -2.854325,0.531989 -3.3274,0.761294 -0.04516,0.02293 -0.07832,0.06138 -0.09172,0.107598 -0.01376,0.04551 -0.0095,0.0949 0.01446,0.13723 l 0.01623,0.02716" />
    <path
       inkscape:connector-curvature="0"
       id="path4910"
       style="fill:#233264;fill-opacity:1;fill-rule:nonzero;stroke:none;stroke-width:0.03527778"
       d="m -75.975971,89.676012 c -0.490361,-0.115006 -1.002947,-0.173214 -1.522589,-0.173214 -1.584678,0 -2.853972,0.531989 -3.3274,0.760941 -0.04516,0.02293 -0.07796,0.06138 -0.09137,0.10795 -0.01482,0.04586 -0.0095,0.09454 0.01411,0.137231 l 0.01623,0.02963 c 0.03069,0.05609 0.08961,0.09137 0.154164,0.09137 0.02611,0 0.05151,-0.006 0.07514,-0.01764 0.456142,-0.2159 1.678164,-0.718609 3.178528,-0.718609 0.485422,0 0.962378,0.05327 1.416403,0.159456 l 0.02963,0.0046 h 0.0099 c 0.07973,0 0.149225,-0.05292 0.170744,-0.131233 l 0.0074,-0.03175 c 0.01164,-0.04621 0.0046,-0.09419 -0.0194,-0.135114 -0.02469,-0.04163 -0.06456,-0.07197 -0.111478,-0.08361" />
    <path
       inkscape:connector-curvature="0"
       id="path4912"
       style="fill:#233264;fill-opacity:1;fill-rule:nonzero;stroke:none;stroke-width:0.03527778"
       d="m -80.888754,91.706213 c 0.03069,0.05606 0.08996,0.09133 0.153811,0.09133 0.02575,0 0.0508,-0.0056 0.07585,-0.01764 0.453672,-0.215794 1.672872,-0.719173 3.178528,-0.719173 0.486128,0 0.963436,0.05359 1.417814,0.159703 l 0.02963,0.0047 h 0.0099 c 0.07937,0 0.149225,-0.05263 0.170744,-0.131621 l 0.0067,-0.03045 c 0.01235,-0.04755 0.0053,-0.09617 -0.01975,-0.13716 -0.02434,-0.04127 -0.06385,-0.0695 -0.11042,-0.08043 -0.490714,-0.115006 -1.004005,-0.173214 -1.524,-0.173214 -1.590675,0 -2.856442,0.531918 -3.327753,0.760942 -0.04445,0.02261 -0.07761,0.06064 -0.09207,0.109008 -0.01376,0.04547 -0.0092,0.09497 0.01411,0.13589 l 0.01693,0.02812" />
    <path
       inkscape:connector-curvature="0"
       id="path4914"
       style="fill:#233264;fill-opacity:1;fill-rule:nonzero;stroke:none;stroke-width:0.03527778"
       d="m -75.977735,91.926416 c -0.490714,-0.114652 -1.002947,-0.172967 -1.522941,-0.172967 -1.585737,0 -2.855031,0.53206 -3.326695,0.760695 -0.04516,0.02148 -0.07761,0.05927 -0.09207,0.10541 -0.01446,0.04699 -0.0095,0.09606 0.01411,0.137266 l 0.01623,0.0303 c 0.0314,0.05651 0.09031,0.09137 0.154164,0.09137 0.02575,0 0.0508,-0.0059 0.07585,-0.01722 0.453672,-0.215936 1.671108,-0.719773 3.178175,-0.719773 0.485775,0 0.963084,0.05405 1.41852,0.159879 l 0.02893,0.0046 h 0.01023 c 0.07902,0 0.149225,-0.05225 0.170744,-0.130775 l 0.0071,-0.03186 c 0.01235,-0.04657 0.0049,-0.09451 -0.02011,-0.135713 -0.0247,-0.04135 -0.06491,-0.06989 -0.112184,-0.08118" />
    <path
       inkscape:connector-curvature="0"
       id="path4916"
       style="fill:#233264;fill-opacity:1;fill-rule:nonzero;stroke:none;stroke-width:0.03527778"
       d="m -75.975971,93.036961 c -0.491419,-0.114653 -1.002947,-0.173214 -1.522589,-0.173214 -1.584325,0 -2.853972,0.531918 -3.3274,0.761224 -0.04516,0.02304 -0.07796,0.06145 -0.09137,0.107633 -0.01446,0.04519 -0.0099,0.09384 0.01376,0.136842 l 0.01658,0.02797 c 0.03069,0.05637 0.08961,0.09165 0.154164,0.09165 0.02611,0 0.05151,-0.0057 0.07514,-0.01725 0.456142,-0.216605 1.678164,-0.719314 3.179234,-0.719314 0.485422,0 0.961672,0.05387 1.415697,0.15942 l 0.02963,0.0046 h 0.0099 c 0.07973,0 0.149225,-0.05221 0.170744,-0.130916 l 0.0074,-0.03168 c 0.01164,-0.04618 0.0046,-0.09454 -0.02046,-0.13656 -0.0247,-0.04096 -0.06421,-0.06904 -0.11042,-0.08036" />
    <path
       inkscape:connector-curvature="0"
       id="path4918"
       style="fill:#233264;fill-opacity:1;fill-rule:nonzero;stroke:none;stroke-width:0.03527778"
       d="m -75.973854,94.151386 c -0.490714,-0.115076 -1.002947,-0.173214 -1.523295,-0.173214 -1.584678,0 -2.853972,0.531636 -3.326694,0.760942 -0.04516,0.02247 -0.07796,0.06107 -0.09172,0.107209 -0.01446,0.04618 -0.0092,0.09564 0.02858,0.1651 0.03034,0.05652 0.08925,0.09179 0.154164,0.09179 0.02611,0 0.05151,-0.0057 0.07514,-0.01739 0.455436,-0.215935 1.677811,-0.718926 3.178528,-0.718926 0.485422,0 0.962025,0.05362 1.416403,0.159456 l 0.02963,0.0046 h 0.0099 c 0.07973,0 0.149225,-0.05362 0.170392,-0.129116 l 0.0071,-0.03171 c 0.01235,-0.04794 0.0053,-0.09768 -0.01975,-0.138606 -0.02364,-0.04025 -0.0635,-0.06918 -0.108303,-0.08008" />
    <path
       inkscape:connector-curvature="0"
       id="path4920"
       style="fill:#233264;fill-opacity:1;fill-rule:nonzero;stroke:none;stroke-width:0.03527778"
       d="m -83.513174,91.43348 c -0.470606,-0.228882 -1.737043,-0.760871 -3.327577,-0.760871 -0.520488,0 -1.033251,0.05821 -1.523965,0.172861 -0.04671,0.01058 -0.08611,0.03951 -0.110666,0.08008 -0.02452,0.0405 -0.03154,0.08996 -0.02011,0.136137 l 0.0074,0.03253 c 0.02138,0.07691 0.09151,0.130915 0.170604,0.130915 l 0.02935,-0.0022 0.0098,-0.0025 c 0.454907,-0.105834 0.931721,-0.159703 1.418272,-0.159703 1.504986,0 2.724679,0.502991 3.179022,0.719596 0.02395,0.01157 0.04904,0.01722 0.07535,0.01722 0.06477,0 0.12252,-0.03528 0.15367,-0.09204 l 0.01641,-0.02674 c 0.02371,-0.04272 0.02864,-0.09137 0.01446,-0.136983 -0.01404,-0.04685 -0.04784,-0.08597 -0.09204,-0.108303" />
    <path
       inkscape:connector-curvature="0"
       id="path4922"
       style="fill:#233264;fill-opacity:1;fill-rule:nonzero;stroke:none;stroke-width:0.03527778"
       d="m -83.513174,92.514426 c -0.472123,-0.228635 -1.741453,-0.760977 -3.32673,-0.760977 -0.520347,0 -1.032299,0.05831 -1.523013,0.172967 -0.04727,0.01129 -0.0871,0.03955 -0.113277,0.08185 -0.02427,0.04092 -0.03073,0.08957 -0.0193,0.134373 l 0.0074,0.03253 c 0.02138,0.07715 0.09151,0.131163 0.170604,0.131163 l 0.02935,-0.002 0.0098,-0.0025 c 0.454907,-0.106221 0.931968,-0.159844 1.418554,-0.159844 1.505938,0 2.724821,0.502991 3.17874,0.71935 0.02395,0.01157 0.04904,0.01722 0.07535,0.01722 0.06396,0 0.123085,-0.03556 0.153247,-0.09137 l 0.0164,-0.02921 c 0.02413,-0.04202 0.02907,-0.09137 0.01489,-0.138642 -0.01517,-0.04657 -0.04808,-0.08431 -0.09204,-0.104846" />
    <path
       inkscape:connector-curvature="0"
       id="path4924"
       style="fill:#233264;fill-opacity:1;fill-rule:nonzero;stroke:none;stroke-width:0.03527778"
       d="m -83.515256,93.624689 c -0.472263,-0.2286 -1.742405,-0.760942 -3.326871,-0.760942 -0.5195,0 -1.031451,0.05817 -1.52273,0.173496 -0.04671,0.01062 -0.08597,0.03912 -0.110631,0.08075 -0.02469,0.04092 -0.03143,0.08999 -0.01958,0.135184 l 0.0069,0.03238 c 0.02138,0.07705 0.09151,0.13134 0.170462,0.13134 l 0.02963,-0.0022 0.0098,-0.0023 c 0.454342,-0.106257 0.930592,-0.159844 1.416508,-0.159844 1.500964,0 2.722986,0.502956 3.178175,0.718926 0.02367,0.01171 0.04904,0.01736 0.07606,0.01736 0.06449,0 0.122626,-0.035 0.153776,-0.09137 l 0.0164,-0.02755 c 0.02385,-0.04272 0.02879,-0.09109 0.01489,-0.136172 -0.01408,-0.04657 -0.04727,-0.08611 -0.09275,-0.109008" />
    <path
       inkscape:connector-curvature="0"
       id="path4926"
       style="fill:#233264;fill-opacity:1;fill-rule:nonzero;stroke:none;stroke-width:0.03527778"
       d="m -83.516773,94.739114 c -0.472404,-0.2286 -1.741417,-0.760942 -3.327012,-0.760942 -0.519783,0 -1.032263,0.05814 -1.523259,0.173214 -0.04523,0.0109 -0.08326,0.03912 -0.108338,0.08008 -0.02494,0.0423 -0.03196,0.09162 -0.02011,0.137512 l 0.0074,0.03115 c 0.02138,0.0769 0.09151,0.130774 0.170604,0.130774 l 0.02935,-0.0021 0.01005,-0.0025 c 0.453672,-0.105834 0.930451,-0.159456 1.416508,-0.159456 1.500788,0 2.723269,0.502991 3.177999,0.718679 0.02371,0.01196 0.04907,0.01764 0.07581,0.01764 0.06392,0 0.122626,-0.03503 0.153635,-0.09137 l 0.01517,-0.02798 c 0.023,-0.04163 0.0284,-0.08999 0.01393,-0.136842 -0.01436,-0.04657 -0.04755,-0.08573 -0.09179,-0.107915" />
    <path
       inkscape:connector-curvature="0"
       id="path4928"
       style="fill:#233264;fill-opacity:1;fill-rule:nonzero;stroke:none;stroke-width:0.03527778"
       d="m -87.928294,89.982575 c 0.346569,-0.05962 0.705555,-0.08925 1.06687,-0.08925 1.500576,0 2.722598,0.503061 3.178599,0.719314 0.02385,0.01129 0.04907,0.01729 0.07496,0.01729 0.06435,0 0.123472,-0.03563 0.153776,-0.09137 l 0.0164,-0.02963 c 0.02371,-0.04233 0.02907,-0.09137 0.01517,-0.136172 -0.01408,-0.04692 -0.04727,-0.08643 -0.09232,-0.109009 -0.459599,-0.222602 -1.681234,-0.735541 -3.21497,-0.759883 l 0.0017,-0.673806 c 1.448858,0.02822 2.608333,0.509059 3.044507,0.717903 0.02367,0.01164 0.04904,0.01729 0.07578,0.01729 0.06477,0 0.122908,-0.03528 0.154058,-0.09137 l 0.0164,-0.02752 c 0.02343,-0.04269 0.02879,-0.09137 0.01446,-0.13723 -0.01475,-0.04657 -0.04752,-0.08572 -0.0919,-0.10795 -0.249979,-0.121003 -1.561183,-0.716845 -3.212501,-0.75812 l 0.0017,-0.74683 c 1.440463,0.02893 2.603818,0.509058 3.042038,0.716844 0.02367,0.01199 0.04904,0.01764 0.07578,0.01764 0.06435,0 0.123472,-0.03528 0.153776,-0.09137 l 0.0164,-0.02928 c 0.02371,-0.04198 0.02935,-0.09066 0.01422,-0.137936 -0.01464,-0.04692 -0.04784,-0.08431 -0.09137,-0.105128 -0.472123,-0.228953 -1.741559,-0.761294 -3.327295,-0.761294 -0.519924,0 -1.032263,0.05821 -1.520225,0.174625 l -0.13836,0.06985 0.0032,2.549525 0.569243,-0.117123" />
    <path
       inkscape:connector-curvature="0"
       id="path4930"
       style="fill:#233264;fill-opacity:1;fill-rule:nonzero;stroke:none;stroke-width:0.03527778"
       d="m -77.383907,66.154552 c -0.0127,0.0018 -0.03704,-7.06e-4 -0.05009,3.53e-4 0.0011,0.0018 0.05009,-3.53e-4 0.05009,-3.53e-4 -0.756003,0.158397 -1.862667,1.608667 -2.059164,1.874308 -0.05433,0.426156 0.01693,0.615245 0.235303,0.925336 0.229305,0.321734 0.109008,0.644878 -0.111831,1.017412 -0.160866,0.280458 -0.480836,1.048808 -0.582436,1.421341 -0.185914,0.203553 -0.44838,0.382764 -0.67945,0.451556 -0.04727,-0.02646 -0.06668,-0.166511 -0.06668,-0.166511 -0.363714,-0.53587 -1.024925,-0.472722 -1.024925,-0.472722 -0.714234,0.121355 -0.741821,0.347133 -0.741821,0.347133 0.153387,-0.01658 0.618737,0.167217 0.618737,0.167217 0.0015,0.109713 0.189088,0.210961 0.189088,0.210961 -0.43381,-0.08043 -0.800382,0.17145 -0.800382,0.17145 -0.662411,0.456847 -0.428695,0.957086 -0.428695,0.957086 0.0011,-0.393347 0.576297,-0.48507 0.576297,-0.48507 0.250508,0.229306 1.225409,-0.168275 1.225409,-0.168275 l -0.858167,0.703087 c -0.322862,0.430741 -0.131586,0.862188 -0.131586,0.862188 0.01337,-0.317852 0.448945,-0.426861 0.448945,-0.426861 0.291747,-0.03069 0.393347,-0.178152 0.393347,-0.178152 0.528461,-0.113242 0.568678,-0.656873 0.568678,-0.656873 0.802922,-0.334786 1.613958,-0.156633 1.613958,-0.156633 0.496712,0.286808 0.843492,0.511528 0.843492,0.511528 l 0.09454,-0.14605 c 0.369711,-0.07937 0.548922,0.370416 0.548922,0.370416 0.126294,-0.593725 -0.341489,-0.792338 -0.341489,-0.792338 -0.191206,-0.226837 -0.547864,-0.213431 -0.547864,-0.213431 l -0.599722,-0.167922 c -0.0046,-0.0078 -0.18027,-0.06421 -0.184856,-0.07338 -0.05327,-0.148167 -0.13335,-0.321733 -0.106186,-0.4826 0.04127,-0.165806 0.09207,-0.297392 0.151695,-0.422275 0.312913,-0.419453 0.785989,-0.929217 0.94368,-1.261886 0.16757,-0.349603 0.283281,-0.912284 0.734484,-1.152173 0.182738,-0.09278 0.4191,-0.180975 0.623358,-0.275872 l 7.06e-4,0.0011 c 0,0 0.0085,-0.0042 0.01975,-0.01094 0.108303,-0.05045 0.206375,-0.103364 0.279047,-0.159455 0.367242,-0.196497 0.60325,-0.363714 0.60325,-0.363714 -0.303741,-0.280106 -0.852664,-0.81915 -1.447447,-1.75895" />
    <path
       inkscape:connector-curvature="0"
       id="path4932"
       style="fill:#233264;fill-opacity:1;fill-rule:nonzero;stroke:none;stroke-width:0.03527778"
       d="m -79.201418,65.528724 c 0.552803,0.136878 0.859719,0.610306 0.914753,0.702381 0.224014,-0.183798 0.453319,-0.328084 0.662164,-0.371475 0,0 -0.590198,-0.990953 -1.537406,-0.915459 -0.01552,0 -0.0321,0.0011 -0.04798,0.0025 -0.0014,0 -0.0032,0 -0.0049,0 l -3.53e-4,3.52e-4 c -0.482952,0.03316 -1.351844,0.488598 -3.338054,1.78682 -3.066415,2.004836 -4.692509,0.908756 -4.692509,0.908756 -0.576015,1.549752 -1.506185,1.931811 -1.506185,1.931811 0,0 0.275026,0.262819 0.793186,0.511528 0.01531,-0.01411 0.02797,-0.0254 0.04353,-0.04092 0.168275,-0.162277 0.380894,-0.395111 0.573123,-0.646994 0.09716,-0.124883 0.187854,-0.255764 0.268605,-0.381706 0.08019,-0.125941 0.1524,-0.246944 0.207398,-0.353836 0.05828,-0.105833 0.101282,-0.19685 0.129504,-0.261761 0.02992,-0.06421 0.04689,-0.101247 0.04689,-0.101247 0,0 -0.0087,0.03951 -0.02343,0.109361 -0.01365,0.0695 -0.03528,0.169333 -0.06918,0.287161 -0.03087,0.118886 -0.07511,0.255764 -0.128023,0.400756 -0.05239,0.145344 -0.114794,0.299155 -0.184926,0.449086 -0.123472,0.269875 -0.268181,0.527403 -0.396487,0.730955 0.309527,0.106186 0.672501,0.192617 1.087297,0.228248 0.01238,-0.01799 0.02367,-0.03316 0.03679,-0.05221 0.133774,-0.191205 0.298874,-0.460375 0.439173,-0.744361 0.07179,-0.141816 0.135714,-0.287161 0.190994,-0.425802 0.05496,-0.138995 0.102518,-0.271287 0.136561,-0.386998 0.03651,-0.114653 0.0616,-0.212725 0.07701,-0.281516 0.01697,-0.06879 0.02635,-0.108303 0.02635,-0.108303 0,0 -4.24e-4,0.04057 -0.0017,0.111478 -4.24e-4,0.07091 -0.0028,0.173213 -0.01351,0.295275 -0.0073,0.122414 -0.02494,0.265289 -0.04921,0.418041 -0.02381,0.152753 -0.05581,0.315384 -0.09588,0.475898 -0.06159,0.255411 -0.141535,0.504825 -0.219393,0.714727 0.420723,-0.0092 0.883603,-0.07197 1.386593,-0.212372 0.0083,-0.02399 0.01598,-0.04551 0.02494,-0.07197 0.07384,-0.221544 0.156104,-0.526344 0.21029,-0.8382 0.02879,-0.155575 0.04932,-0.313619 0.06269,-0.462491 0.0139,-0.148873 0.02219,-0.288925 0.02191,-0.409575 0.0023,-0.120298 -0.0014,-0.221192 -0.0059,-0.291748 -0.0033,-0.07091 -0.0052,-0.111477 -0.0052,-0.111477 0,0 0.01115,0.0388 0.02988,0.107244 0.02014,0.06844 0.04632,0.166864 0.07042,0.287161 0.02759,0.119592 0.05101,0.261409 0.07098,0.414867 0.02053,0.153106 0.0357,0.318206 0.04272,0.483658 0.01252,0.253295 0.0079,0.507648 -0.0065,0.725664 0.331576,-0.121708 0.678003,-0.275519 1.040024,-0.470253 0.142628,-0.07655 0.280423,-0.1524 0.41656,-0.227894 -0.0012,-0.205317 -0.0139,-0.447322 -0.04396,-0.689681 -0.01803,-0.157691 -0.04424,-0.314677 -0.07454,-0.46108 -0.0303,-0.146403 -0.06325,-0.282928 -0.09839,-0.398286 -0.03295,-0.115711 -0.06601,-0.210961 -0.09052,-0.277284 -0.02385,-0.06703 -0.0375,-0.105127 -0.0375,-0.105127 0,0 0.02138,0.03387 0.05955,0.09384 0.03941,0.05997 0.09313,0.146756 0.151306,0.254353 0.06103,0.106539 0.12499,0.235303 0.18849,0.376414 0.0641,0.140406 0.12707,0.293864 0.181786,0.450497 0.06477,0.179564 0.11878,0.361245 0.163442,0.531989 0.435434,-0.248002 0.829733,-0.486128 1.178983,-0.713316 -0.02787,-0.215195 -0.07937,-0.493537 -0.155927,-0.769762 -0.03951,-0.144286 -0.08572,-0.287513 -0.134762,-0.420158 -0.04904,-0.132644 -0.09878,-0.255764 -0.147743,-0.358422 -0.04646,-0.104422 -0.0907,-0.189089 -0.122802,-0.24765 -0.0314,-0.05962 -0.04946,-0.09349 -0.04946,-0.09349 0,0 0.02551,0.02893 0.06971,0.07937 0.04551,0.04974 0.108479,0.122766 0.179387,0.214489 0.07303,0.09066 0.151695,0.201436 0.233186,0.323144 0.08079,0.121708 0.163336,0.255411 0.238478,0.3937 0.113947,0.205317 0.214489,0.4191 0.293158,0.607836 0.220839,-0.154516 0.418042,-0.303036 0.588081,-0.444147 h 7.06e-4 l 0.183797,-0.139347 c 0,0 0.03245,-0.221192 -0.0508,-0.412045 -0.04516,-0.109008 -0.09419,-0.220486 -0.149225,-0.331611 -0.06562,-0.134761 -0.137936,-0.266347 -0.210961,-0.38735 -0.07267,-0.121355 -0.144992,-0.233186 -0.21202,-0.324555 -0.06562,-0.09384 -0.12453,-0.168981 -0.167217,-0.220134 -0.04233,-0.05256 -0.06632,-0.08255 -0.06632,-0.08255 0,0 0.03069,0.02399 0.08361,0.06491 0.05397,0.04057 0.129822,0.09984 0.216252,0.176742 0.0889,0.07514 0.186973,0.169686 0.289984,0.273756 0.102305,0.104422 0.207786,0.220486 0.307622,0.342194 0.01587,0.0187 0.02999,0.03775 0.04516,0.0568 0,0 0.267758,0.333375 0.265641,0.658636 0,0 0.372181,-0.520347 0.83185,-0.971197 -0.09525,-0.652286 -0.695325,-0.984603 -0.621594,-0.966611" />
    <path
       inkscape:connector-curvature="0"
       id="path4934"
       style="fill:#233264;fill-opacity:1;fill-rule:nonzero;stroke:none;stroke-width:0.03527778"
       d="m -92.611137,59.759396 c 1.033109,0.166864 2.50197,-0.479072 3.090404,-1.147586 -0.09193,-0.181328 -0.37966,-0.253295 -0.544901,-0.228248 -0.783555,0.584906 -2.452476,1.332442 -3.523756,0.518584 0,0 -1.008874,-0.741539 -0.331153,-1.940984 0,0 0.190994,0.611364 0.54349,0.647348 0,0 0.07909,-1.009298 0.677721,-1.199798 0,0 -0.833296,-0.317853 -1.498494,0.351367 -0.817033,0.822325 -0.220874,2.706864 1.586689,2.999317" />
    <path
       inkscape:connector-curvature="0"
       id="path4936"
       style="fill:#233264;fill-opacity:1;fill-rule:nonzero;stroke:none;stroke-width:0.03527778"
       d="m -86.382951,65.928068 c 0.948372,-0.153811 1.883763,0.283634 1.883763,0.283634 0.295592,-1.042106 -0.124143,-1.353256 -0.124143,-1.353256 -0.879898,0.88512 -1.75962,1.069622 -1.75962,1.069622" />
    <path
       inkscape:connector-curvature="0"
       id="path4938"
       style="fill:#233264;fill-opacity:1;fill-rule:nonzero;stroke:none;stroke-width:0.03527778"
       d="m -82.965981,64.964279 c 0,0 0.221051,-0.942975 -0.509023,-1.375127 0,0 -0.386821,0.660752 -0.777769,0.989894 0,0 0.281517,0.391583 0.175013,0.752122 0,0 0.61528,-0.5588 1.111779,-0.366889" />
    <path
       inkscape:connector-curvature="0"
       id="path4940"
       style="fill:#233264;fill-opacity:1;fill-rule:nonzero;stroke:none;stroke-width:0.03527778"
       d="m -80.43226,62.665932 c 0,0 0.315383,-1.199444 1.434395,-1.199444 0,0 -0.619831,-1.02482 -2.128662,-1.0541 -1.508301,-0.02928 -1.618544,1.190977 -1.618544,1.190977 v 0.03493 c 8.11e-4,-0.01588 0.869527,-0.498475 1.776942,0.262114 0,0 0.473427,0.329495 0.535869,0.765528" />
    <path
       inkscape:connector-curvature="0"
       id="path4942"
       style="fill:#233264;fill-opacity:1;fill-rule:nonzero;stroke:none;stroke-width:0.03527778"
       d="m -89.488242,63.805757 c -0.08968,0.07867 -0.188102,0.1778 -0.289772,0.28575 -0.101706,0.107597 -0.20574,0.226484 -0.302895,0.350309 -0.196533,0.245886 -0.3689,0.506941 -0.48507,0.707319 -0.0255,0.04304 -0.04674,0.0822 -0.06713,0.118886 -0.0033,0.01094 -0.0074,0.02222 -0.01073,0.03316 -0.114406,0.381 -0.200519,0.761648 -0.237313,1.118306 0.08269,-0.09807 0.169651,-0.197556 0.261408,-0.293864 0.112324,-0.118886 0.230011,-0.232128 0.343676,-0.333728 0.113842,-0.100894 0.222144,-0.192264 0.320146,-0.263878 0.0955,-0.07444 0.178294,-0.13088 0.23689,-0.169333 0.05828,-0.03951 0.09148,-0.06138 0.09148,-0.06138 0,0 -0.02755,0.02893 -0.07535,0.08008 -0.04851,0.05009 -0.11564,0.123473 -0.191029,0.215548 -0.07758,0.08996 -0.160796,0.20073 -0.246521,0.320675 -0.0853,0.120297 -0.171274,0.251177 -0.249978,0.386291 -0.159985,0.268464 -0.294076,0.54857 -0.380895,0.761647 -0.03499,0.0829 -0.05994,0.151342 -0.08075,0.208139 0.05443,0.250825 0.157374,0.469548 0.32205,0.642762 -0.0044,-0.01129 0.05348,-0.118534 0.14732,-0.276931 0.198438,-0.352425 0.418113,-0.685095 0.649464,-1.019528 -8.11e-4,-3.53e-4 -0.0012,-0.0011 -0.0012,-0.0011 0.356482,-0.532342 0.837847,-1.108428 0.996174,-1.187803 0,0 -0.344347,-1.086908 -0.01351,-2.190045 0.147179,-0.706614 0.786201,-1.849261 0.854005,-2.62255 -0.211667,0.26282 -0.374721,0.447675 -0.854005,0.511528 l -0.09024,0.257175 v -0.0011 l -0.363679,0.699205 c 0.184256,-0.07937 0.366713,-0.142169 0.510152,-0.18168 0.08477,-0.0247 0.155998,-0.04022 0.206587,-0.05045 0.0496,-0.01129 0.07786,-0.01729 0.07786,-0.01729 0,0 -0.02508,0.01482 -0.06932,0.04022 -0.04424,0.0247 -0.10668,0.06138 -0.177906,0.109361 -0.144709,0.09454 -0.326884,0.232128 -0.492372,0.385234 -0.166335,0.152047 -0.317218,0.316794 -0.421005,0.445205 -0.01651,0.02011 -0.02963,0.03739 -0.04396,0.05503 -0.05401,0.103012 -0.111619,0.213078 -0.175401,0.341489 -0.09966,0.199673 -0.20507,0.42157 -0.312844,0.66287 -0.0496,0.110772 -0.09839,0.225072 -0.146755,0.341489 0.117545,-0.09384 0.238125,-0.182034 0.354718,-0.26035 0.127317,-0.08537 0.247897,-0.161572 0.355247,-0.219781 0.10541,-0.06068 0.195686,-0.106186 0.259645,-0.136525 0.06311,-0.03104 0.0992,-0.04833 0.0992,-0.04833 0,0 -0.03115,0.02469 -0.08558,0.06914 -0.05553,0.04339 -0.132962,0.107245 -0.220768,0.188736" />
    <path
       inkscape:connector-curvature="0"
       id="path4944"
       style="fill:#233264;fill-opacity:1;fill-rule:nonzero;stroke:none;stroke-width:0.03527778"
       d="m -76.26666,59.489521 c -0.01376,-0.598664 0.128764,-1.286934 0.607836,-1.6129 1.056217,-0.718961 3.923242,-0.570442 3.923242,-0.570442 -0.596547,-0.238478 -6.484761,-1.200503 -9.525,1.678164 0,0 2.783064,-1.455561 4.792133,0.307622 0.07444,0.04727 0.1397,0.152047 0.201789,0.197556" />
    <path
       inkscape:connector-curvature="0"
       id="path4946"
       style="fill:#233264;fill-opacity:1;fill-rule:nonzero;stroke:none;stroke-width:0.03527778"
       d="m -76.86356,59.489521 c 0,0 -0.733072,-0.457553 -1.565275,-0.609247 -1.045633,-0.1905 -2.911193,0.148166 -3.647899,1.351139 1.876249,-0.528109 2.81993,0.239536 3.365324,0.79128 0.132645,-1.346906 1.564922,-1.472494 1.84785,-1.533172" />
    <path
       inkscape:connector-curvature="0"
       id="path4948"
       style="fill:#233264;fill-opacity:1;fill-rule:nonzero;stroke:none;stroke-width:0.03527778"
       d="m -82.647352,63.981088 c 0.489868,-1.123598 1.866195,-1.065742 1.866195,-1.065742 0.0039,-0.208844 -0.386292,-0.849136 -1.235746,-1.045281 -0.938882,-0.216252 -1.355301,1.277409 -1.355301,1.277409 0.650981,0.110772 0.724852,0.833614 0.724852,0.833614" />
    <path
       inkscape:connector-curvature="0"
       id="path4950"
       style="fill:#233264;fill-opacity:1;fill-rule:nonzero;stroke:none;stroke-width:0.03527778"
       d="m -88.521384,65.718871 c -0.193217,0.05609 -0.351402,0.316442 -0.351402,0.316442 -0.532201,0.70485 -0.873831,1.253419 -1.387405,2.150533 -0.640256,1.033639 -1.262309,2.52977 -2.082624,3.313642 -0.07306,0.06809 -0.103646,0.110772 -0.219674,0.151695 -0.11617,0.04127 -0.255094,-0.1651 -0.255094,-0.1651 -0.363502,-0.53587 -1.024819,-0.473428 -1.024819,-0.473428 -0.714093,0.122061 -0.741822,0.347486 -0.741822,0.347486 0.153388,-0.01693 0.618737,0.166864 0.618737,0.166864 0.0017,0.109714 0.189089,0.211314 0.189089,0.211314 -0.433811,-0.08008 -0.800382,0.171097 -0.800382,0.171097 -0.662411,0.456847 -0.428837,0.957439 -0.428837,0.957439 0.0014,-0.3937 0.57658,-0.48507 0.57658,-0.48507 0.250367,0.229659 1.225339,-0.168275 1.225339,-0.168275 l -0.858097,0.703087 c -0.323003,0.430741 -0.131621,0.861836 -0.131621,0.861836 0.01312,-0.3175 0.448415,-0.426156 0.448415,-0.426156 0.29203,-0.03104 0.393736,-0.178858 0.393736,-0.178858 0.528461,-0.112889 0.56896,-0.656872 0.56896,-0.656872 0.802322,-0.334787 1.613711,-0.156634 1.613711,-0.156634 0.496923,0.287161 0.843633,0.511528 0.843633,0.511528 l 0.0944,-0.145697 c 0.369712,-0.07902 0.548711,0.370064 0.548711,0.370064 0.126365,-0.593372 -0.341348,-0.791986 -0.341348,-0.791986 -0.190994,-0.226837 -0.547758,-0.213431 -0.547758,-0.213431 l -0.546382,-0.153106 c -0.04357,-0.06809 -0.08364,-0.142522 -0.116029,-0.233538 -0.06657,-0.485423 0.284833,-0.943328 0.51936,-1.309512 0.720302,-0.784225 1.838466,-1.098902 2.360189,-1.668639 0.463691,-0.5207 0.93031,-1.33738 0.853687,-2.386541 -0.03129,-0.452967 -0.83566,-0.664987 -1.021256,-0.620184" />
    <path
       inkscape:connector-curvature="0"
       id="path4952"
       style="fill:#233264;fill-opacity:1;fill-rule:nonzero;stroke:none;stroke-width:0.03527778"
       d="m -94.374462,62.642296 c 0.334998,0.802569 0.156528,1.613606 0.156528,1.613606 -0.287056,0.497064 -0.511669,0.843844 -0.511669,0.843844 l 0.145944,0.09419 c 0.07923,0.369711 -0.370135,0.548922 -0.370135,0.548922 0.593655,0.126295 0.792516,-0.341489 0.792516,-0.341489 0.226412,-0.190853 0.213183,-0.547864 0.213183,-0.547864 l 0.152965,-0.546453 c 0.06791,-0.04339 0.142628,-0.08361 0.233962,-0.116063 0.294358,-0.154517 0.542396,0.02293 0.72898,0.18803 0.06851,0.06421 0.137407,0.129117 0.204223,0.200731 0.401038,0.364066 0.569842,0.918633 0.859367,1.354666 l -0.0012,0.0028 0.421252,0.671336 c 0.02177,-0.409928 0.117687,-0.858661 0.252589,-1.307395 0.07221,-0.239536 0.155046,-0.477661 0.243664,-0.710847 h -0.348263 c -0.0175,-0.0025 -0.03637,-0.0025 -0.05676,0 -0.48715,-0.125236 -0.867762,-0.574675 -1.325527,-0.959556 -0.141958,-0.131939 -0.483835,-0.384527 -0.761365,-0.585258 -0.08075,-0.05821 -0.123331,-0.06738 -0.164818,-0.183444 -0.04135,-0.116064 0.165629,-0.255059 0.165629,-0.255059 0.535376,-0.363714 0.472687,-1.024819 0.472687,-1.024819 -0.121285,-0.714375 -0.347556,-0.741892 -0.347556,-0.741892 0.01722,0.153458 -0.166476,0.618772 -0.166476,0.618772 -0.10982,0.0018 -0.211102,0.189089 -0.211102,0.189089 0.07994,-0.433917 -0.171415,-0.800453 -0.171415,-0.800453 -0.456706,-0.662516 -0.957192,-0.428625 -0.957192,-0.428625 0.393418,0.0011 0.485352,0.576439 0.485352,0.576439 -0.229588,0.250472 0.16771,1.225198 0.16771,1.225198 l -0.702663,-0.857956 c -0.431341,-0.323145 -0.8624,-0.131586 -0.8624,-0.131586 0.3175,0.01305 0.426508,0.449086 0.426508,0.449086 0.03129,0.291394 0.178717,0.392994 0.178717,0.392994 0.113171,0.528462 0.656802,0.569031 0.656802,0.569031" />
    <path
       inkscape:connector-curvature="0"
       id="path4954"
       style="fill:#233264;fill-opacity:1;fill-rule:nonzero;stroke:none;stroke-width:0.03527778"
       d="m -84.786067,64.459454 8.11e-4,7.06e-4 c 0.752264,-0.629356 1.37915,-2.156178 1.559948,-2.758017 2.156637,-7.179028 11.881663,-4.597047 11.881663,-4.597047 -2.994026,-1.159228 -6.010981,-0.771878 -6.010981,-0.771878 0,0 -4.488639,0.223308 -6.139675,3.930297 -0.989294,2.219678 -1.489392,2.985559 -1.699401,3.22827 -2.82e-4,0 -2.82e-4,-3.53e-4 -8.47e-4,-7.06e-4 -1.151184,1.216025 -2.209659,1.098903 -2.209659,1.098903 1.10931,-0.316441 1.666029,-1.122186 1.810879,-1.362075 0,0 0.143863,-0.230364 0.152118,-0.312914 -0.09687,0.01482 -0.35373,0.08925 -0.468101,0.09102 -0.345757,0.01305 -0.654438,-0.278342 -0.723335,-0.680156 -0.254953,0.27552 -0.437409,0.589139 -0.437409,0.589139 0.03489,-0.383822 0.314078,-0.788458 0.518583,-1.037519 0.04837,-0.07091 0.10982,-0.137584 0.173355,-0.197203 0.02755,-0.02893 0.04477,-0.04657 0.04477,-0.04657 l 0.0021,0.0035 c 0.139735,-0.123119 0.273403,-0.206022 0.273403,-0.206022 0,0 -0.519395,-0.3048 -0.543913,-0.852311 -0.289948,0.26423 -0.510152,0.589844 -0.510152,0.589844 0.06682,-0.418747 0.430071,-0.842786 0.650557,-1.066447 0.184926,-0.244122 0.484682,-0.322086 0.484682,-0.322086 0,0 -0.553579,-0.110773 -0.463727,-1.062567 -0.218404,0.2286 -0.371792,0.455083 -0.371792,0.455083 0.05443,-0.343252 0.30868,-0.689327 0.519924,-0.926747 0.174589,-0.286808 0.436421,-0.386997 0.436421,-0.386997 -0.05401,-0.03845 -0.103187,-0.08008 -0.149507,-0.124884 -0.05662,-0.04763 -0.124143,-0.106538 -0.199002,-0.177094 -0.103046,-0.09948 -0.219216,-0.221544 -0.328507,-0.365125 -0.107209,-0.145344 -0.212901,-0.311503 -0.266523,-0.50165 -0.02921,-0.09313 -0.04188,-0.193322 -0.03581,-0.290689 0.0026,-0.09737 0.0332,-0.1905 0.07179,-0.27305 0.04188,-0.08114 0.09275,-0.153458 0.15173,-0.210961 0.05539,-0.06138 0.118357,-0.107245 0.174978,-0.149578 0.116451,-0.08114 0.221756,-0.134761 0.29658,-0.168628 0.07482,-0.03351 0.117545,-0.05256 0.117545,-0.05256 0,0 -0.04149,0.02152 -0.113982,0.05962 -0.07165,0.03845 -0.114794,0.06385 -0.223767,0.150636 -0.05292,0.0448 -0.11109,0.09313 -0.16002,0.155222 -0.05316,0.05821 -0.09588,0.129822 -0.129928,0.206728 -0.03034,0.07761 -0.05249,0.162631 -0.04921,0.250119 5.65e-4,0.08714 0.01725,0.175331 0.04921,0.258939 0.0853,0.226837 0.165206,0.40005 0.319017,0.555273 -0.06145,-0.188384 -0.06823,-0.341842 -0.04561,-0.556684 0.05913,-0.675216 1.05156,-1.101725 1.05156,-1.101725 0,0 -0.113948,-0.138641 -0.361844,-0.166158 0,0 -0.695784,-0.18027 -2.151134,0.7747 -0.731308,-0.416983 -1.823155,-0.218017 -2.536543,0.481542 0,0 -0.941211,-0.444853 -2.134058,0.672041 l 1.190237,0.345723 c 0.352213,0.176741 0.411621,0.233891 0.408446,0.669572 0.53728,-0.339372 1.001959,-0.277636 1.402856,-0.08537 0.237278,0.117122 0.741645,0.4572 0.574746,1.127477 -0.0544,0.09631 -0.113242,0.187678 -0.187819,0.264231 -0.473746,0.508353 -1.20703,0.539397 -1.793523,0.600075 -0.196356,0.02963 -0.390242,0.40005 -0.475544,0.598311 l 0.166052,-0.0388 c 0.90798,-0.264584 1.615617,0.277636 2.514248,-0.09701 0.715856,-0.424039 0.943398,-0.927453 0.935672,-1.797403 -0.103364,-1.287992 -0.574781,-1.612547 -0.759036,-1.671109 -0.372463,-0.09349 -0.606602,0.29845 -0.814564,0.171098 -0.249555,-0.153811 -0.153635,-0.543984 -0.153635,-0.543984 0.24765,-0.09807 0.739599,0.05574 0.93913,0.131939 0.265006,0.136525 0.947949,0.471311 1.067999,1.958623 0.0562,0.455436 0.04106,0.789869 0.03651,1.343025 -0.142628,1.615369 -0.817034,2.089503 -0.957757,3.823758 0.02759,0.99307 0.115641,1.15817 0.321522,1.322917 0.380753,0.304447 1.596037,0.218722 2.161716,-0.08043 0.429684,-0.227189 0.812201,-0.531284 1.145576,-0.868187" />
    <path
       inkscape:connector-curvature="0"
       id="path4956"
       style="fill:#233264;fill-opacity:1;fill-rule:nonzero;stroke:none;stroke-width:0.03527778"
       d="m -87.129147,67.32648 c 6.71e-4,-0.0018 0.0019,-0.0042 0.0036,-0.0088 -0.0017,0.0035 -0.0029,0.0067 -0.0036,0.0088" />
    <path
       inkscape:connector-curvature="0"
       id="path4958"
       style="fill:#233264;fill-opacity:1;fill-rule:nonzero;stroke:none;stroke-width:0.03527778"
       d="m -87.129147,67.32648 c -0.0017,0.0046 -0.0017,0.0039 0,0" />
    <path
       inkscape:connector-curvature="0"
       id="path4960"
       style="fill:#233264;fill-opacity:1;fill-rule:nonzero;stroke:none;stroke-width:0.03527778"
       d="m -87.125584,67.31766 c 0.003,-0.0067 0.0059,-0.01411 0.0074,-0.01834 -0.0028,0.0071 -0.0052,0.0134 -0.0074,0.01834" />
    <path
       inkscape:connector-curvature="0"
       id="path4962"
       style="fill:#233264;fill-opacity:1;fill-rule:nonzero;stroke:none;stroke-width:0.03527778"
       d="m -68.684759,70.739605 c -0.27305,-0.0762 -0.545042,0.139347 -0.545042,0.139347 l -0.561269,0.206022 c -0.03175,0.02999 -0.434623,-0.03775 -0.47237,-0.0099 -0.100894,-0.244828 -0.211314,-0.594431 -0.366183,-1.254126 l -0.0011,-0.0056 c -0.02223,-0.09419 -0.0448,-0.194381 -0.06844,-0.301978 h -0.0028 l -0.128764,-0.546453 -0.121002,-1.002594 c 0,0 -0.0074,-0.02646 -0.02011,-0.06879 -0.17145,-0.795514 -0.478719,-1.180042 -0.502708,-1.218494 l -3.53e-4,0.0011 c -0.878064,-1.410406 -2.718506,-2.030589 -2.739319,-2.03447 0.08184,0.01588 1.687336,0.277637 2.689225,1.450623 0.460375,-0.101247 0.903464,-0.2667 1.347964,-0.515761 1.901825,-1.063978 3.009194,-3.888317 1.461205,-5.820481 -1.52788,-1.907823 -4.592461,-1.036461 -4.927247,0.691091 -0.272345,1.40582 0.789869,2.149476 0.789869,2.149476 -0.254705,-0.902759 0.905934,-1.88842 0.905934,-1.88842 -0.329848,-0.401461 -1.226961,-0.09737 -1.226961,-0.09737 0.906638,-1.888772 2.624314,-1.30175 2.624314,-1.30175 2.60985,1.002242 2.033411,4.265084 -0.354895,5.153378 -0.779992,0.289984 -1.574447,0.180975 -2.278592,-0.09102 -1.028347,-0.517525 -0.53975,-2.073628 -0.53975,-2.073628 0,0 -0.49918,0.595136 -1.122891,0.552803 -7.06e-4,0 -0.0011,-3.53e-4 -0.0021,-3.53e-4 0.05574,0.355953 0.250472,0.736953 0.250472,0.736953 -0.351719,-0.277989 -0.519289,-1.004359 -0.519289,-1.004359 h 7.06e-4 c -0.163336,-0.400755 -0.144639,-1.08585 -0.207786,-0.874889 -0.09102,0.299861 -0.333728,0.798336 -1.071034,0.858661 -0.0067,0.0011 -0.0134,-0.0018 -0.02011,-0.0011 0.133703,0.271286 0.316794,0.502003 0.316794,0.502003 -0.257527,-0.130881 -0.476602,-0.458964 -0.599722,-0.675922 -0.232128,-0.32385 -0.314325,-0.981781 -0.314325,-0.981781 -0.526697,0.9779 -2.037292,1.188156 -2.616553,1.222022 -0.880181,-0.105833 -0.646994,1.062567 -0.646994,1.062567 -0.318206,-0.167569 -0.390878,-0.396522 -0.8001,-0.401461 -0.186267,-0.0095 -0.558977,0.09525 -0.722701,0.22225 -0.461927,0.279047 -0.818974,0.743303 -0.862083,1.962856 -0.44069,-0.3556 -0.888859,-0.14852 -1.3341,0.179564 0,0 -0.112007,0.631825 -0.458329,0.94368 -0.55506,-0.302683 -1.177396,-0.418747 -1.317554,-0.422628 l 0.0019,-7.05e-4 c 0,0 -0.503132,-0.06174 -1.256207,0.03175 0,0 0.108727,0.595136 -0.09179,1.084439 1.131922,0.755297 2.924739,-0.03951 3.919008,-0.598664 1.133017,-0.624417 2.197312,-1.524706 3.387584,-1.982611 0.597253,-0.268464 1.231195,-0.160162 1.737431,0.191205 0.725664,0.50412 1.549753,1.908881 2.416881,2.750609 0.04868,0.04763 0.570794,0.751769 2.375605,0.839611 0,0 0.946856,-0.01834 1.653117,1.102783 0.0321,0.05397 0.06562,0.110772 0.09984,0.17145 0.02505,0.04551 0.0508,0.0889 0.07514,0.138289 0.166864,0.315031 0.340783,0.711906 0.47625,1.212497 -0.0194,0.138642 -0.04445,0.289631 -0.08431,0.419806 -0.02117,0.07373 -0.04974,0.133703 -0.08008,0.187678 -0.0011,0 -0.0021,-7.06e-4 -0.0028,-7.06e-4 -0.0194,0.121356 -0.17533,-0.0575 -0.17533,-0.0575 -0.578203,-0.230011 -1.061156,0.200378 -1.061156,0.200378 -0.492125,0.508706 -0.390172,0.709436 -0.390172,0.709436 0.110772,-0.1016 0.575028,-0.217664 0.575028,-0.217664 0.06174,0.08925 0.263877,0.06491 0.263877,0.06491 -0.383469,0.182739 -0.532694,0.599016 -0.532694,0.599016 -0.268464,0.753886 0.188383,1.030111 0.188383,1.030111 -0.214136,-0.323497 0.185561,-0.728133 0.185561,-0.728133 0.321734,0.0441 0.867128,-0.839964 0.867128,-0.839964 l -0.287161,1.067859 c -0.01658,0.538338 0.369359,0.782108 0.369359,0.782108 -0.163689,-0.267758 0.117475,-0.607131 0.117475,-0.607131 0.210961,-0.192264 0.209902,-0.371475 0.209902,-0.371475 0.35172,-0.395816 0.08608,-0.864305 0.08608,-0.864305 -0.04939,-0.649464 1.176867,-1.053395 1.176867,-1.053395 0.545747,-0.04974 0.934155,-0.237772 0.934155,-0.237772 0.246239,-0.277283 0.632178,-0.01094 0.632178,-0.01094 -0.22613,-0.5588 -0.700969,-0.454025 -0.700969,-0.454025" />
    <path
       inkscape:connector-curvature="0"
       id="path4964"
       style="fill:#233264;fill-opacity:1;fill-rule:nonzero;stroke:none;stroke-width:0.03527778"
       d="m -63.374042,76.712839 -0.05151,0.01764 c -0.596547,0.395817 -4.841875,2.829278 -15.641462,-0.331611 -13.156354,-3.851628 -21.179156,2.771775 -21.179156,2.771775 l 0.10393,0.02469 c 1.179581,-0.61595 9.23244,-4.515909 21.355332,-0.971197 11.719984,3.431117 15.412862,-1.5113 15.412862,-1.5113" />
    <path
       inkscape:connector-curvature="0"
       id="path4966"
       style="fill:#233264;fill-opacity:1;fill-rule:nonzero;stroke:none;stroke-width:0.03527778"
       d="m -81.814902,114.87324 c 0,0 20.972041,-5.35768 23.546613,-22.20532 l -0.09596,0.11176 c -1.883833,12.27501 -23.450657,18.98371 -23.450657,18.98371 h 0.0095 c 0,0 -21.566434,-6.7087 -23.450624,-18.98371 l -0.0959,-0.11176 c 2.57429,16.84764 23.546544,22.20532 23.546544,22.20532" />
    <path
       inkscape:connector-curvature="0"
       id="path4968"
       style="fill:#233264;fill-opacity:1;fill-rule:nonzero;stroke:none;stroke-width:0.03527778"
       d="m -81.820264,52.257576 c 7.958138,0 21.091703,3.3528 22.294675,5.577417 0.589844,0.917575 1.072444,5.684661 1.1684,6.524978 l 0.09878,0.147108 c 0,0 0.227189,-4.844697 0.144991,-6.313311 -0.169333,-3.038122 -10.876139,-8.44797 -23.706844,-8.44797 h 0.02011 c -12.830352,0 -23.537308,5.409848 -23.706818,8.44797 -0.0818,1.468614 0.14514,6.313311 0.14514,6.313311 l 0.0988,-0.147108 c 0.0958,-0.840317 0.57837,-5.607403 1.16832,-6.524978 1.20315,-2.224617 14.336405,-5.577417 22.294578,-5.577417" />
    <path
       inkscape:connector-curvature="0"
       id="path4970"
       style="fill:#233264;fill-opacity:1;fill-rule:nonzero;stroke:none;stroke-width:0.03527778"
       d="m 11.786679,82.385858 c 0,0 -5.2225224,6.487584 -25.673051,2.418998 -22.94361,-4.556478 -37.687253,0.894997 -37.687253,0.894997 0,0 14.751404,-7.603773 37.698189,-3.042356 20.4427676,4.066117 25.662115,-0.271639 25.662115,-0.271639" />
    <path
       inkscape:connector-curvature="0"
       id="path4972"
       style="fill:#233264;fill-opacity:1;fill-rule:nonzero;stroke:none;stroke-width:0.03527778"
       d="m -51.546461,112.86582 h 1.749778 l 0.987778,-2.20126 h 4.120445 l 0.987777,2.20126 h 2.144889 l -4.572,-9.96237 h -0.691444 z m 6.251223,-3.51356 h -2.921 l 1.439333,-3.23151 z m 4.363156,3.51356 h 1.890889 v -0.74785 c 0.239888,0.2963 0.874888,1.07241 2.102555,1.07241 1.411111,0 3.203223,-1.10067 3.203223,-4.00748 0,-2.24374 -1.142648,-3.83826 -3.076223,-3.83826 -1.368778,0 -1.94698,0.74785 -2.229555,1.11485 v -3.55604 h -1.890889 z m 1.890889,-5.41856 c 0,-0.0142 0.451555,-0.94548 1.538111,-0.94548 0.719666,0 1.185333,0.40916 1.467555,0.98778 0.282223,0.56445 0.324556,1.21349 0.324556,1.67915 0,2.37078 -1.100667,2.86467 -1.834445,2.86467 -0.804333,0 -1.227314,-0.50811 -1.495777,-0.83263 z m 12.928248,3.2173 c -0.493889,0.635 -1.016,1.29826 -2.327981,1.29826 -2.229909,0 -2.469445,-1.98977 -2.540353,-2.52596 h 5.559778 c -0.01411,-0.79015 -0.02822,-2.13071 -1.030111,-3.14674 -0.874889,-0.87493 -2.003425,-0.97374 -2.624667,-0.97374 -2.553758,0 -3.908778,1.72159 -3.908778,3.83826 0,2.21548 1.369131,4.00762 3.965223,4.00762 2.483555,0 3.062464,-1.48166 3.372908,-2.27199 z m -4.825648,-2.32833 c 0.183092,-0.71974 0.465314,-1.83445 1.819981,-1.83445 1.411464,0 1.566333,1.18527 1.651,1.83445 z m 8.416926,-2.69529 h -1.890537 v 7.22488 h 1.890537 v -5.60211 c 0.324555,-0.21166 0.747889,-0.49389 1.439333,-0.49389 0.522111,0 0.889353,0.16934 1.242131,0.33871 v -1.63682 c -0.169686,-0.0283 -0.352778,-0.0424 -0.536575,-0.0424 -1.284112,0 -1.862314,0.74799 -2.144889,1.11481 z m 4.628444,0 h -1.142647 v 1.12888 h 1.142647 v 3.99356 c 0,0.635 0.07056,1.27 0.59302,1.77792 0.54998,0.55041 1.297869,0.59271 1.636536,0.59271 0.931333,0 1.439333,-0.32452 1.86302,-0.57863 l -0.226131,-0.45145 c -0.225778,0.0706 -0.422981,0.14111 -0.719667,0.14111 -0.140758,0 -0.705555,0 -1.044222,-0.635 -0.140758,-0.23992 -0.225778,-0.53633 -0.225778,-1.1431 v -3.69712 h 1.651 v -1.12888 h -1.651 v -1.96138 h -1.876778 z m 10.7625455,2.86466 c 0,-0.66326 -0.014111,-1.62278 -0.7196668,-2.34255 -0.4092222,-0.42334 -1.1997973,-0.83245 -2.4271117,-0.83245 -2.144889,0 -2.709686,1.24174 -3.02013,1.93311 l 0.48013,0.23989 c 0.282223,-0.381 0.78987,-1.07237 1.989314,-1.07237 0.536575,0 1.340556,0.18341 1.6792227,0.94548 0.155575,0.35278 0.1837972,0.73367 0.1979083,1.10063 -0.5647973,-0.16937 -1.0160001,-0.31048 -1.707445,-0.31048 -1.679575,0 -3.048353,0.9313 -3.048353,2.59652 0,1.29811 0.931687,2.31411 2.39889,2.31411 1.3409079,0 2.0464635,-0.70555 2.356908,-1.03007 v 0.8184 h 1.8203335 z m -1.8203335,2.89278 c -0.3668889,0.23978 -0.8187973,0.522 -1.48202,0.522 -0.945091,0 -1.297869,-0.66312 -1.297869,-1.28408 0,-0.91722 0.733778,-1.35459 1.565981,-1.35459 0.4801302,0 0.8470191,0.12689 1.213908,0.268 z m 4.7988364,1.52396 h 0.6914445 l 1.9053529,-4.20508 1.90500012,4.20508 H 1.0269563 l 2.7234446,-7.2814 H 2.2401592 l -1.24142512,3.59833 -0.21201946,0.67744 c -0.15486946,-0.38104 -0.16898057,-0.45159 -0.31044447,-0.79033 l -1.43933342,-3.48544 H -1.5839522 l -1.8767779,4.26155 c -0.098425,-0.35278 -0.1266472,-0.43737 -0.225425,-0.76189 l -1.1856862,-3.49966 h -1.9610918 z m 14.7831536,-2.25778 c -0.493889,0.635 -1.0159999,1.29826 -2.3283334,1.29826 -2.2295556,0 -2.4694446,-1.98977 -2.5400001,-2.52596 h 5.5594255 c -0.01411,-0.79015 -0.02822,-2.13071 -1.029759,-3.14674 -0.8748885,-0.87493 -2.0037775,-0.97374 -2.6246664,-0.97374 -2.5541113,0 -3.908778,1.72159 -3.908778,3.83826 0,2.21548 1.3687778,4.00762 3.9648697,4.00762 2.4835557,0 3.0624637,-1.48166 3.3729087,-2.27199 z m -4.8260002,-2.32833 c 0.1830917,-0.71974 0.4656667,-1.83445 1.8203335,-1.83445 1.4111112,0 1.5659806,1.18527 1.6510001,1.83445 H 5.8049788" />
    <path
       inkscape:connector-curvature="0"
       id="path4974"
       style="fill:#233264;fill-opacity:1;fill-rule:nonzero;stroke:none;stroke-width:0.03527778"
       d="m -45.904133,94.381397 c 0.854075,0.0441 0.94227,0.0441 1.251656,0.0441 3.047295,0 4.2545,-1.428079 4.2545,-3.09178 0,-1.325386 -0.765528,-2.017183 -1.428044,-2.311752 -0.589139,-0.264937 -1.26612,-0.309034 -2.252839,-0.309034 h -3.25367 v 10.394563 h 1.428397 z m 0,-4.79993 h 1.575153 c 1.26612,0 1.722614,0.29457 2.031647,0.662517 0.235656,0.279753 0.427214,0.721395 0.427214,1.222022 0,0.898208 -0.559505,1.796274 -1.914172,2.164363 -0.868186,0.23562 -1.707445,0.206269 -2.119842,0.191523 z m 8.261351,3.827992 c 0.147108,-0.206022 0.6477,-0.897784 1.545519,-0.897784 0.500592,0 0.912989,0.205987 1.148645,0.308927 v -1.207135 c -0.206375,-0.08848 -0.397581,-0.176671 -0.780345,-0.176671 -1.074561,0 -1.6637,0.853687 -1.913819,1.20717 v -1.030499 h -1.354667 v 7.494024 h 1.354667 z m 5.434189,-1.810738 h -1.33985 v 7.50877 h 1.33985 z m -1.442861,-2.179179 c 0,0.471311 0.367947,0.780345 0.765528,0.780345 0.250472,0 0.795161,-0.147109 0.795161,-0.824442 0,-0.382764 -0.29457,-0.765881 -0.765528,-0.765881 -0.471311,0 -0.795161,0.353484 -0.795161,0.809978 m 5.220758,3.047612 h 1.545873 v -0.853687 h -1.545873 v -0.72143 c 0,-0.648053 0,-0.98672 0.161925,-1.251656 0.147462,-0.250119 0.456495,-0.471311 0.927806,-0.471311 0.353131,0 0.603603,0.103364 0.809625,0.191558 0.05891,-0.08819 0.176742,-0.220839 0.235656,-0.309033 -0.161925,-0.176742 -0.559506,-0.648053 -1.472495,-0.648053 -0.618419,0 -1.060097,0.220839 -1.325033,0.412397 -0.662517,0.500592 -0.677334,1.192389 -0.677334,1.869723 v 0.927805 h -1.06045 v 0.853687 h 1.06045 v 6.640337 h 1.33985 z m 8.261351,-0.853687 -2.28212,5.226756 -2.120547,-5.226756 h -1.486606 l 2.915003,6.787375 c -0.986719,2.238088 -1.605139,2.929858 -2.915003,3.327398 v 0.39758 c 1.899003,0.0886 2.885723,-1.04524 3.783895,-3.091636 l 3.268486,-7.420717 z m 7.533923,1.781528 c -0.0441,-0.338737 -0.147109,-1.045669 -0.913342,-1.575505 -0.544336,-0.382694 -1.265767,-0.515409 -1.854553,-0.515409 -1.693333,0 -2.72415,0.971938 -2.72415,2.223206 0,1.44279 1.295753,1.855258 2.046817,2.090879 0.809625,0.250119 1.192389,0.367947 1.486958,0.515408 0.206022,0.103046 0.750711,0.397263 0.750711,1.104194 0,0.750782 -0.662516,1.251268 -1.678164,1.251268 -0.751064,0 -1.472494,-0.264866 -1.958269,-0.691762 -0.338667,-0.294499 -0.515409,-0.603603 -0.648053,-0.824336 -0.103011,0.0441 -0.279753,0.08819 -0.397228,0.132292 0.07338,0.353448 0.206022,1.11894 0.986367,1.708079 0.588786,0.426897 1.325033,0.588822 2.06128,0.588822 0.809626,0 1.575153,-0.161925 2.179109,-0.647665 0.515408,-0.412468 0.824442,-1.001289 0.824442,-1.708221 0,-1.590004 -1.516592,-2.031647 -2.267303,-2.252556 -0.103011,-0.02963 -0.736248,-0.220769 -0.780345,-0.235656 -0.76588,-0.250366 -1.266472,-0.544583 -1.266472,-1.163038 0,-0.662587 0.633236,-1.148609 1.605139,-1.148609 1.398411,0 1.913467,0.853969 2.164292,1.266437 0.103011,-0.02963 0.279753,-0.08848 0.382764,-0.117828 m 6.7063056,-1.781528 v 0.971515 c -0.3090333,-0.441678 -0.8981722,-1.280901 -2.2232057,-1.280901 -1.5755056,0 -3.0183669,1.339885 -3.0183669,3.916539 0,2.37035 1.2664724,3.666138 2.9301725,3.666138 1.4576779,0 2.0760973,-0.839364 2.3114001,-1.148327 v 0.426755 c 0,1.060133 0,1.752318 -0.5298722,2.355924 -0.3975806,0.47099 -1.0160001,0.67729 -1.6344196,0.67729 -0.6917972,0 -1.4135806,-0.26486 -1.8993556,-0.70693 -0.3386672,-0.3091 -0.4709582,-0.588853 -0.5887862,-0.83922 l -0.427214,0.147426 c 0.442031,2.105374 2.2087419,2.341034 3.0039031,2.341034 1.2661195,0 2.1201945,-0.47131 2.6207862,-0.97194 0.7948084,-0.80959 0.7948084,-1.84037 0.7948084,-2.959487 v -6.595816 z m 0,5.550606 c -0.3386666,0.279718 -0.9422695,0.78038 -1.7959917,0.78038 -1.443214,0 -2.0468168,-1.39887 -2.0468168,-2.826773 0,-1.693334 0.7803445,-2.856548 1.9879029,-2.856548 0.3679472,0 0.7507111,0.117828 1.0893778,0.338737 0.4268612,0.279718 0.6184195,0.603568 0.7655278,0.854111 z M 4.5039343,95.249971 c 0,-2.296654 -1.354314,-3.94589 -3.54823912,-3.94589 -2.00236678,0 -3.69570018,1.295788 -3.69570018,4.181511 0,0.692079 0.088547,2.149757 1.2075584,3.121413 0.82444168,0.692044 1.75189451,0.809872 2.35549733,0.809872 1.63477237,0 2.50295847,-0.809872 2.87125847,-1.280901 0.5005917,-0.648088 0.8096251,-1.619603 0.8096251,-2.886005 m -1.4280445,0.08848 c 0,2.399983 -1.0449279,3.268557 -2.19392518,3.268557 -0.75071116,0 -1.53105565,-0.426932 -1.89935572,-1.413334 -0.1178277,-0.279717 -0.2942166,-0.912953 -0.2942166,-1.884856 0,-1.575118 0.57396944,-3.180257 2.20838899,-3.180257 1.51694451,0 2.17910851,1.516557 2.17910851,3.20989 m 4.6023391,-6.62552 H 6.3387316 V 99.107914 H 7.6782289 V 88.712928" />
    <path
       inkscape:connector-curvature="0"
       id="path4976"
       style="fill:#233264;fill-opacity:1;fill-rule:nonzero;stroke:none;stroke-width:0.03527778"
       d="m -41.672563,66.357046 h -1.413581 v 8.098015 c -0.662516,0.750711 -1.840441,1.619603 -3.195108,1.619603 -0.986367,0 -1.781175,-0.456495 -2.134659,-1.016001 -0.264936,-0.412397 -0.367947,-0.986366 -0.367947,-2.105377 v -6.59624 h -1.413581 v 7.229123 c 0,1.089731 0.176742,1.840442 0.795162,2.473678 0.559505,0.588786 1.501775,1.001183 2.738614,1.001183 1.383947,0 2.532239,-0.441678 3.577519,-1.840442 v 1.545873 h 1.413581 z m 8.09625,5.138562 c 0,-0.69215 -0.01482,-1.398764 -0.632883,-1.973087 -0.147461,-0.117827 -0.633236,-0.559505 -1.722967,-0.559505 -1.561041,0 -2.267303,0.957086 -2.561872,1.354667 v -1.045281 h -1.325033 v 7.494059 h 1.325033 v -5.580239 c 0.515056,-0.868539 1.295753,-1.251303 2.017183,-1.251303 0.441678,0 1.251656,0.176741 1.472495,0.986366 0.103011,0.397581 0.103011,0.780345 0.103011,1.590323 v 4.254853 h 1.325033 z m 3.050823,-2.238023 h -1.33985 v 7.508876 h 1.33985 z m -1.442861,-2.179108 c 0,0.471311 0.367947,0.780344 0.765527,0.780344 0.25012,0 0.795162,-0.147108 0.795162,-0.824441 0,-0.382764 -0.29457,-0.765528 -0.765881,-0.765528 -0.470958,0 -0.794808,0.35313 -0.794808,0.809625 m 8.271228,2.193925 -2.134659,5.005917 c -0.117827,0.264936 -0.132644,0.353483 -0.161925,0.500592 -0.05891,-0.250473 -0.132644,-0.441678 -0.147461,-0.485775 l -2.046464,-5.020734 h -1.457678 l 3.283303,7.582606 h 0.456495 l 3.312936,-7.582606 z m 8.467373,3.754261 c 0.01482,-0.529872 0.05891,-2.134658 -1.104195,-3.209572 -0.588786,-0.530225 -1.383947,-0.854075 -2.341033,-0.854075 -2.017184,0 -3.739798,1.487311 -3.739798,4.093281 0,2.6797 1.766711,4.01955 3.754614,4.01955 2.576689,0 3.150659,-1.870075 3.29812,-2.399947 -0.103364,-0.02963 -0.265289,-0.103012 -0.3683,-0.147462 -0.264936,0.412398 -1.016,1.531409 -2.60597,1.531409 -0.220838,0 -1.280936,0 -2.032,-0.971903 -0.573969,-0.765528 -0.618419,-1.634067 -0.6477,-2.061281 z m -5.771445,-0.809625 c 0.206022,-1.722614 1.398764,-2.326217 2.296936,-2.326217 0.735895,0 2.061281,0.441678 2.164292,2.326217 z m 8.367184,-1.148291 c 0.147461,-0.206375 0.648053,-0.898173 1.545872,-0.898173 0.500592,0 0.912989,0.206022 1.1486446,0.309034 v -1.207206 c -0.2060226,-0.08855 -0.3975806,-0.176742 -0.7803446,-0.176742 -1.074914,0 -1.6637,0.854075 -1.914172,1.207206 v -1.030464 h -1.354667 v 7.494059 h 1.354667 z m 8.9386837,-0.01482 c -0.04445,-0.338667 -0.1474612,-1.045281 -0.912989,-1.575506 -0.5446889,-0.382764 -1.2661195,-0.515408 -1.8552584,-0.515408 -1.6926279,0 -2.7234446,0.971903 -2.7234446,2.223206 0,1.443214 1.2957528,1.855258 2.046464,2.090914 0.809625,0.250119 1.1923889,0.367947 1.4869584,0.515408 0.2060222,0.103011 0.7507112,0.397581 0.7507112,1.104194 0,0.750712 -0.6625167,1.251303 -1.6785168,1.251303 -0.7503584,0 -1.471789,-0.264936 -1.9579168,-0.691797 -0.3383139,-0.294569 -0.5150556,-0.603603 -0.6477,-0.824442 -0.1030112,0.0441 -0.2801056,0.0882 -0.3979334,0.132292 0.073731,0.353483 0.2067278,1.119011 0.9870723,1.70815 0.5887861,0.426861 1.3250334,0.588786 2.0609279,0.588786 0.809625,0 1.5751529,-0.161925 2.1787557,-0.6477 0.5154083,-0.412397 0.8247945,-1.001183 0.8247945,-1.70815 0,-1.589969 -1.5165918,-2.031647 -2.2676557,-2.252486 -0.1030111,-0.02963 -0.7358945,-0.220839 -0.7803445,-0.235656 -0.7651751,-0.250119 -1.2657668,-0.544336 -1.2657668,-1.163108 0,-0.662517 0.6332362,-1.148645 1.6044335,-1.148645 1.398764,0 1.9141723,0.854075 2.1642918,1.266473 0.1033639,-0.02963 0.2797528,-0.08855 0.3831167,-0.117828 m 2.74425847,-1.796345 H -2.2905661 v 7.508876 h 1.33949727 z M -2.3935772,67.078477 c 0,0.471311 0.3679472,0.780344 0.7655278,0.780344 0.2501194,0 0.79480836,-0.147108 0.79480836,-0.824441 0,-0.382764 -0.29456946,-0.765528 -0.76552786,-0.765528 -0.4709583,0 -0.7948083,0.35313 -0.7948083,0.809625 m 4.7289864,3.047647 H 3.9109148 V 69.272402 H 2.3354092 V 67.284499 H 0.9952063 v 1.987903 h -1.03081673 v 0.853722 H 0.9952063 v 4.667603 c 0,0.898173 0.0589139,1.501775 0.6625167,1.928637 0.2211917,0.147108 0.6480528,0.353483 1.2223751,0.353483 0.8688917,0 1.3398501,-0.412397 1.6196029,-0.648053 -0.058914,-0.103011 -0.1471084,-0.250119 -0.2060223,-0.35313 -0.2504722,0.117827 -0.5154083,0.250119 -0.8981723,0.250119 -1.0600972,0 -1.0600972,-0.94227 -1.0600972,-1.899356 z M 10.351932,69.272402 8.0701651,74.499158 5.9499705,69.272402 h -1.487664 l 2.9157085,6.787445 c -0.9863667,2.238022 -1.6047862,2.929819 -2.9157085,3.3274 v 0.397581 c 1.8997085,0.08855 2.886428,-1.045281 3.7846003,-3.091745 L 11.51504,69.272402 h -1.163108" />
    <path
       inkscape:connector-curvature="0"
       id="path4978"
       style="fill:#233264;fill-opacity:1;fill-rule:nonzero;stroke:none;stroke-width:0.03527778"
       d="m -50.296922,59.798554 c 0.09031,0.556331 0.225425,1.413581 0.962378,2.135364 1.007533,1.007181 2.481086,1.03752 3.022247,1.03752 0.451556,0 2.210506,0 3.353506,-1.188156 0.541161,-0.571147 0.932039,-1.413228 0.932039,-2.33045 0,-0.827264 -0.330906,-1.563864 -0.842081,-2.045053 -0.691444,-0.691797 -1.789289,-0.947561 -2.526241,-1.112661 -1.142648,-0.225778 -1.954742,-0.391231 -2.270478,-1.172986 -0.07514,-0.195439 -0.09031,-0.390878 -0.09031,-0.511175 0,-1.097845 1.067858,-1.639006 2.27083,-1.639006 0.917575,0 1.654175,0.300567 2.120195,0.751769 0.27058,0.270581 0.390878,0.526345 0.526344,0.856898 l 0.616303,-0.1651 c -0.04516,-0.360892 -0.120297,-1.097845 -0.766939,-1.759303 -0.916869,-0.947561 -2.375606,-0.962378 -2.811286,-0.962378 -3.443817,0 -4.090459,2.135011 -4.090459,3.307997 0,2.435931 2.240492,2.887134 3.443464,3.127728 1.293284,0.255412 2.210153,0.586317 2.210153,1.728964 0,0.902406 -0.7366,1.819628 -2.240139,1.819628 -0.902405,0 -1.789641,-0.27058 -2.436283,-0.902053 -0.390878,-0.39123 -0.586317,-0.797277 -0.781756,-1.188155 z m 11.462809,2.91712 h 0.7366 l 2.029884,-4.480984 2.029883,4.480984 h 0.721783 l 2.902303,-7.758995 h -1.609372 l -1.322917,3.834342 -0.225425,0.721783 c -0.165452,-0.406047 -0.180269,-0.481189 -0.331258,-0.84208 l -1.533525,-3.714045 h -0.661458 l -1.999898,4.541308 c -0.105128,-0.376061 -0.135114,-0.466372 -0.240947,-0.812094 l -1.262945,-3.729214 h -2.090208 z m 15.648871,-4.706409 c 0,-0.706967 -0.01552,-1.729317 -0.767292,-2.496256 -0.435681,-0.451202 -1.278114,-0.887236 -2.586567,-0.887236 -2.284942,0 -2.886428,1.32327 -3.217686,2.060223 l 0.511175,0.255411 c 0.301272,-0.405695 0.84208,-1.142648 2.120194,-1.142648 0.5715,0 1.42875,0.195439 1.789289,1.007534 0.165453,0.375708 0.195439,0.781755 0.210961,1.172633 -0.601486,-0.180269 -1.082675,-0.330553 -1.819275,-0.330553 -1.789641,0 -3.248025,0.992364 -3.248025,2.766837 0,1.383241 0.992011,2.465917 2.556228,2.465917 1.428397,0 2.180167,-0.75177 2.511072,-1.097845 v 0.87242 h 1.939926 z m -1.939926,3.082573 c -0.390877,0.255411 -0.872419,0.55633 -1.579033,0.55633 -1.007181,0 -1.383242,-0.706967 -1.383242,-1.368425 0,-0.977547 0.781756,-1.443567 1.668992,-1.443567 0.511175,0 0.902406,0.135467 1.293283,0.28575 z m 10.599562,-3.638903 c 0,-0.646642 -0.04515,-1.413581 -0.616655,-2.015067 -0.406048,-0.420864 -1.052689,-0.706614 -1.849614,-0.706614 -1.458384,0 -2.120195,0.781755 -2.511073,1.232958 v -1.007533 h -1.999897 v 7.699023 h 1.999897 V 56.92659 c 0.345722,-0.390878 0.841728,-0.947561 1.668992,-0.947561 0.721783,0 1.097492,0.466372 1.218142,0.902406 0.07514,0.255763 0.07514,0.526344 0.07514,0.781755 v 4.992512 h 2.015067 z m 1.160639,3.1877 c 0.04516,0.360891 0.135114,0.917222 0.646642,1.443567 0.330553,0.330905 1.097139,0.887236 2.601383,0.887236 2.2101533,0 3.2780117,-1.248128 3.2780117,-2.586567 0,-0.646642 -0.2409472,-1.217789 -0.6014862,-1.59385 -0.4360333,-0.451203 -1.0227028,-0.616303 -1.4435667,-0.721784 -0.28575,-0.07514 -0.5715,-0.135114 -0.8576028,-0.195439 -0.676628,-0.180269 -1.368072,-0.375708 -1.368072,-1.067505 0,-0.496359 0.436386,-1.022703 1.5338775,-1.022703 1.5187084,0 1.8947696,0.782108 2.0298835,1.052689 l 0.5263445,-0.150283 c -0.060325,-0.30092 -0.1502834,-0.75177 -0.6014862,-1.218142 -0.4811889,-0.496006 -1.2629445,-0.842081 -2.2856474,-0.842081 -2.2404919,0 -3.2328559,1.353256 -3.2328559,2.586567 0,1.398411 1.157817,1.834445 1.458384,1.939572 0.346075,0.135467 0.691444,0.210609 1.037872,0.28575 0.9768416,0.210609 1.4735528,0.406048 1.6989778,0.902053 0.045155,0.135467 0.075142,0.255764 0.075142,0.376061 0,0.04516 0,0.75177 -0.8424334,1.02235 -0.2550584,0.09031 -0.5108224,0.105481 -0.7514174,0.105481 -0.84208,0 -1.563864,-0.28575 -1.984728,-0.706614 -0.210608,-0.210608 -0.300919,-0.421217 -0.390877,-0.616655 z M 1.3331674,60.309729 c -0.52634445,0.676628 -1.08267504,1.383595 -2.4810862,1.383595 -2.3759585,0 -2.6313696,-2.120195 -2.7065113,-2.691695 H 2.0701203 C 2.0549508,58.159548 2.0401341,56.731151 0.97227574,55.648476 0.04023679,54.716084 -1.1627355,54.610957 -1.8245467,54.610957 c -2.7216807,0 -4.1652474,1.834444 -4.1652474,4.089753 0,2.360789 1.4587362,4.270728 4.2255724,4.270728 2.6465391,0 3.2628419,-1.579034 3.5937475,-2.421114 z m -5.142442,-2.481086 c 0.1954389,-0.766939 0.4963584,-1.954742 1.9395724,-1.954742 1.50389174,0 1.66934453,1.263297 1.75930287,1.954742 z m 13.7177648,0.180622 c 0,-0.706967 -0.014817,-1.729317 -0.7665862,-2.496256 -0.4363861,-0.451202 -1.2784667,-0.887236 -2.5865668,-0.887236 -2.2856474,0 -2.8871335,1.32327 -3.2176863,2.060223 l 0.511175,0.255411 c 0.3005667,-0.405695 0.8420806,-1.142648 2.1201946,-1.142648 0.5715,0 1.4283973,0.195439 1.789289,1.007534 0.1654528,0.375708 0.1954389,0.781755 0.2106083,1.172633 -0.6011333,-0.180269 -1.082675,-0.330553 -1.8196278,-0.330553 -1.789289,0 -3.2476725,0.992364 -3.2476725,2.766837 0,1.383241 0.992364,2.465917 2.556228,2.465917 1.4283973,0 2.1801668,-0.75177 2.5110723,-1.097845 v 0.87242 h 1.9395724 z m -1.9395724,3.082573 c -0.3908778,0.255411 -0.8720667,0.55633 -1.5790334,0.55633 -1.0071806,0 -1.3832417,-0.706967 -1.3832417,-1.368425 0,-0.977547 0.7817556,-1.443567 1.6689917,-1.443567 0.5111751,0 0.9024056,0.135467 1.2932834,0.28575 v 1.969912" />
  </g>
</svg>
